<svg width="1600" height="1100" viewBox="0 0 1600 1100" fill="none" xmlns="http://www.w3.org/2000/svg">
<rect width="1600" height="1100" fill="#060A13"/>
<rect width="1600" height="1100" fill="url(#paint0_radial)"/>
<circle cx="420" cy="390" r="270" fill="url(#paint1_radial)"/>
<circle cx="1170" cy="660" r="300" fill="url(#paint2_radial)"/>
<path d="M346 761C512 591 658 458 784 362C910 266 1046 205 1194 180" stroke="#E8EDF6" stroke-opacity="0.28" stroke-width="2"/>
<path d="M280 685C470 523 659 394 848 298C1037 202 1201 155 1340 156" stroke="#57A6FF" stroke-opacity="0.34" stroke-width="2"/>
<rect x="180" y="150" width="1240" height="780" rx="42" fill="rgba(8,16,31,0.68)" stroke="rgba(255,255,255,0.08)"/>
<path d="M406 682C414.182 492.442 560.706 334 742 334C873.174 334 992.604 415.148 1044 539.466C1070.48 603.535 1140.98 638.495 1208.61 620.245L1312 592.33" stroke="#57A6FF" stroke-width="18" stroke-linecap="round"/>
<path d="M406 742C414.182 552.442 560.706 394 742 394C873.174 394 992.604 475.148 1044 599.466C1070.48 663.535 1140.98 698.495 1208.61 680.245L1312 652.33" stroke="#D8AB62" stroke-width="9" stroke-linecap="round" opacity="0.85"/>
<rect x="312" y="248" width="260" height="76" rx="22" fill="#091427"/>
<rect x="315" y="808" width="340" height="30" rx="15" fill="rgba(255,255,255,0.09)"/>
<rect x="1048" y="248" width="220" height="220" rx="36" fill="#0A1730"/>
<rect x="1090" y="296" width="135" height="136" rx="68" fill="url(#paint3_linear)"/>
<defs>
<radialGradient id="paint0_radial" cx="0" cy="0" r="1" gradientUnits="userSpaceOnUse" gradientTransform="translate(279 183) rotate(34.992) scale(1030.58 1015.2)">
<stop stop-color="#1D69C4" stop-opacity="0.3"/>
<stop offset="1" stop-color="#1D69C4" stop-opacity="0"/>
</radialGradient>
<radialGradient id="paint1_radial" cx="0" cy="0" r="1" gradientUnits="userSpaceOnUse" gradientTransform="translate(420 390) rotate(90) scale(270)">
<stop stop-color="#57A6FF" stop-opacity="0.32"/>
<stop offset="1" stop-color="#57A6FF" stop-opacity="0"/>
</radialGradient>
<radialGradient id="paint2_radial" cx="0" cy="0" r="1" gradientUnits="userSpaceOnUse" gradientTransform="translate(1170 660) rotate(90) scale(300)">
<stop stop-color="#D8AB62" stop-opacity="0.23"/>
<stop offset="1" stop-color="#D8AB62" stop-opacity="0"/>
</radialGradient>
<linearGradient id="paint3_linear" x1="1090" y1="296" x2="1225" y2="432" gradientUnits="userSpaceOnUse">
<stop stop-color="#57A6FF"/>
<stop offset="1" stop-color="#D8AB62"/>
</linearGradient>
</defs>
</svg>
