<svg width="1600" height="1100" viewBox="0 0 1600 1100" fill="none" xmlns="http://www.w3.org/2000/svg">
<rect width="1600" height="1100" fill="#060B15"/>
<rect width="1600" height="1100" fill="url(#paint0_radial)"/>
<rect x="120" y="110" width="1360" height="880" rx="40" fill="#091425" stroke="rgba(255,255,255,0.08)"/>
<rect x="190" y="190" width="1210" height="90" rx="24" fill="#0E1B34"/>
<rect x="190" y="322" width="335" height="270" rx="28" fill="url(#paint1_linear)"/>
<rect x="560" y="322" width="510" height="270" rx="28" fill="#0E1B34"/>
<rect x="1105" y="322" width="295" height="270" rx="28" fill="#0E1B34"/>
<rect x="190" y="630" width="1210" height="280" rx="28" fill="#0B172C"/>
<path d="M598 505L675 426L758 490L846 382L944 465L1024 352" stroke="#57A6FF" stroke-width="10" stroke-linecap="round"/>
<path d="M608 531L684 468L764 519L850 431L942 510L1015 414" stroke="#D8AB62" stroke-width="6" stroke-linecap="round"/>
<circle cx="331" cy="420" r="62" fill="#57A6FF"/>
<circle cx="331" cy="420" r="34" fill="#081120"/>
<circle cx="331" cy="420" r="13" fill="#D8AB62"/>
<rect x="247" y="520" width="170" height="18" rx="9" fill="rgba(255,255,255,0.12)"/>
<rect x="642" y="692" width="520" height="34" rx="17" fill="#0F223F"/>
<rect x="642" y="742" width="420" height="20" rx="10" fill="rgba(255,255,255,0.1)"/>
<rect x="642" y="784" width="350" height="20" rx="10" fill="rgba(255,255,255,0.08)"/>
<defs>
<radialGradient id="paint0_radial" cx="0" cy="0" r="1" gradientUnits="userSpaceOnUse" gradientTransform="translate(290 116) rotate(39.1737) scale(1206.88 1040.96)">
<stop stop-color="#57A6FF" stop-opacity="0.4"/>
<stop offset="1" stop-color="#57A6FF" stop-opacity="0"/>
</radialGradient>
<linearGradient id="paint1_linear" x1="190" y1="322" x2="525" y2="592" gradientUnits="userSpaceOnUse">
<stop stop-color="#0B1B36"/>
<stop offset="1" stop-color="#12335D"/>
</linearGradient>
</defs>
</svg>
