<svg width="1600" height="1100" viewBox="0 0 1600 1100" fill="none" xmlns="http://www.w3.org/2000/svg">
<rect width="1600" height="1100" fill="#050C17"/>
<rect width="1600" height="1100" fill="url(#paint0_radial)" fill-opacity="0.8"/>
<rect width="1600" height="1100" fill="url(#paint1_radial)" fill-opacity="0.7"/>
<rect x="170" y="150" width="1260" height="780" rx="36" fill="url(#paint2_linear)" stroke="rgba(255,255,255,0.08)"/>
<rect x="220" y="215" width="540" height="58" rx="16" fill="#0D1B35"/>
<rect x="220" y="305" width="1160" height="210" rx="28" fill="#0B162B"/>
<rect x="220" y="548" width="360" height="320" rx="28" fill="#0C1C39"/>
<rect x="610" y="548" width="380" height="320" rx="28" fill="#0C1C39"/>
<rect x="1020" y="548" width="360" height="320" rx="28" fill="#0C1C39"/>
<circle cx="1305" cy="244" r="18" fill="#D8AB62"/>
<circle cx="1245" cy="244" r="18" fill="#57A6FF"/>
<path d="M304 415C421 316.667 593.4 281 821 308C1048.6 335 1238.67 459 1391 680" stroke="#57A6FF" stroke-width="10" stroke-linecap="round"/>
<path d="M306 457C441.333 384.333 620.4 362.6 843.2 391.8C1066 421 1248.27 499.067 1390 626" stroke="#D8AB62" stroke-width="6" stroke-linecap="round" opacity="0.85"/>
<defs>
<radialGradient id="paint0_radial" cx="0" cy="0" r="1" gradientUnits="userSpaceOnUse" gradientTransform="translate(284 161) rotate(33.5697) scale(1018.65 933.728)">
<stop stop-color="#57A6FF" stop-opacity="0.45"/>
<stop offset="1" stop-color="#57A6FF" stop-opacity="0"/>
</radialGradient>
<radialGradient id="paint1_radial" cx="0" cy="0" r="1" gradientUnits="userSpaceOnUse" gradientTransform="translate(1265 241) rotate(126.694) scale(741.009 650.352)">
<stop stop-color="#D8AB62" stop-opacity="0.28"/>
<stop offset="1" stop-color="#D8AB62" stop-opacity="0"/>
</radialGradient>
<linearGradient id="paint2_linear" x1="170" y1="150" x2="1430" y2="930" gradientUnits="userSpaceOnUse">
<stop stop-color="#091325"/>
<stop offset="1" stop-color="#071019"/>
</linearGradient>
</defs>
</svg>
