<svg width="1600" height="1100" viewBox="0 0 1600 1100" fill="none" xmlns="http://www.w3.org/2000/svg">
<rect width="1600" height="1100" fill="#050B15"/>
<rect width="1600" height="1100" fill="url(#paint0_radial)"/>
<rect x="150" y="130" width="1300" height="840" rx="42" fill="#081120" stroke="rgba(255,255,255,0.08)"/>
<rect x="220" y="200" width="1160" height="90" rx="24" fill="#0E1930"/>
<rect x="220" y="340" width="260" height="540" rx="28" fill="#0B162B"/>
<rect x="520" y="340" width="420" height="240" rx="28" fill="#0C1E3A"/>
<rect x="980" y="340" width="400" height="240" rx="28" fill="#0B162B"/>
<rect x="520" y="620" width="860" height="260" rx="28" fill="#0B162B"/>
<rect x="280" y="256" width="220" height="18" rx="9" fill="rgba(255,255,255,0.12)"/>
<rect x="260" y="400" width="180" height="50" rx="16" fill="#0F2546"/>
<rect x="260" y="478" width="180" height="50" rx="16" fill="#112A50"/>
<rect x="260" y="556" width="180" height="50" rx="16" fill="#14305B"/>
<rect x="260" y="634" width="180" height="50" rx="16" fill="#18396D"/>
<rect x="260" y="712" width="180" height="50" rx="16" fill="#1E467F"/>
<path d="M586 505H874" stroke="#D8AB62" stroke-width="10" stroke-linecap="round"/>
<path d="M586 449H888" stroke="rgba(255,255,255,0.22)" stroke-width="14" stroke-linecap="round"/>
<path d="M1040 451H1280" stroke="rgba(255,255,255,0.18)" stroke-width="14" stroke-linecap="round"/>
<circle cx="1124" cy="466" r="74" fill="#57A6FF"/>
<circle cx="1124" cy="466" r="31" fill="#0A1324"/>
<rect x="586" y="700" width="720" height="30" rx="15" fill="rgba(255,255,255,0.1)"/>
<rect x="586" y="752" width="620" height="20" rx="10" fill="rgba(255,255,255,0.08)"/>
<rect x="586" y="794" width="560" height="20" rx="10" fill="rgba(255,255,255,0.08)"/>
<defs>
<radialGradient id="paint0_radial" cx="0" cy="0" r="1" gradientUnits="userSpaceOnUse" gradientTransform="translate(294 156) rotate(36.2365) scale(1119.83 963.43)">
<stop stop-color="#57A6FF" stop-opacity="0.34"/>
<stop offset="1" stop-color="#57A6FF" stop-opacity="0"/>
</radialGradient>
</defs>
</svg>
